<?xml version="1.0" encoding="UTF-8" standalone="no"?>
<!DOCTYPE svg PUBLIC "-//W3C//DTD SVG 1.1//EN" "http://www.w3.org/Graphics/SVG/1.1/DTD/svg11.dtd">
<svg version="1.1" xmlns="http://www.w3.org/2000/svg" xmlns:xlink="http://www.w3.org/1999/xlink" viewBox="0 0 640 640" width="64" height="64"><defs><path d="M429.61 324.92C429.61 380.12 384.8 424.92 329.61 424.92C274.41 424.92 229.61 380.12 229.61 324.92C229.61 269.73 274.41 224.92 329.61 224.92C384.8 224.92 429.61 269.73 429.61 324.92Z" id="cXVrLQ8nY"></path><path d="M382.51 297.07C385.06 297.07 387.13 298.85 387.13 301.04C387.13 306.14 387.13 346.93 387.13 352.03C387.13 354.22 385.06 356 382.51 356C379.95 356 377.89 354.22 377.89 352.03C377.89 348.63 377.89 331.63 377.89 301.04L377.89 301.04C379.27 298.4 380.81 297.07 382.51 297.07ZM259.16 306.01C261.71 306.01 263.78 307.78 263.78 309.98C263.78 313.29 263.78 339.77 263.78 343.08C263.78 345.28 261.71 347.06 259.16 347.06C256.6 347.06 254.54 345.28 254.54 343.08C254.54 340.87 254.54 329.84 254.54 309.98L254.54 309.98C255.91 307.33 257.45 306.01 259.16 306.01ZM276.78 297.07C279.33 297.07 281.4 298.85 281.4 301.04C281.4 306.14 281.4 346.93 281.4 352.03C281.4 354.22 279.33 356 276.78 356C274.22 356 272.16 354.22 272.16 352.03C272.16 348.63 272.16 331.63 272.16 301.04L272.16 301.04C273.53 298.4 275.07 297.07 276.78 297.07ZM294.4 287.19C296.91 287.19 298.94 288.96 298.94 291.14C298.94 298.22 298.94 354.85 298.94 361.93C298.94 364.12 296.9 365.88 294.4 365.88C291.88 365.88 289.85 364.12 289.85 361.93C289.85 357.21 289.85 333.61 289.85 291.14L289.85 291.14C291.21 288.51 292.73 287.19 294.4 287.19ZM312.02 276.53C314.57 276.53 316.64 278.31 316.64 280.5C316.64 289.71 316.64 363.35 316.64 372.56C316.64 374.75 314.57 376.53 312.02 376.53C309.46 376.53 307.4 374.75 307.4 372.56C307.4 366.42 307.4 335.74 307.4 280.5L307.4 280.5C308.77 277.85 310.31 276.53 312.02 276.53ZM364.89 306.01C367.44 306.01 369.51 307.78 369.51 309.98C369.51 313.29 369.51 339.77 369.51 343.08C369.51 345.28 367.44 347.06 364.89 347.06C362.33 347.06 360.27 345.28 360.27 343.08C360.27 340.87 360.27 329.84 360.27 309.98L360.27 309.98C361.65 307.33 363.19 306.01 364.89 306.01ZM347.27 297.07C349.82 297.07 351.89 298.85 351.89 301.04C351.89 306.14 351.89 346.93 351.89 352.03C351.89 354.22 349.82 356 347.27 356C344.71 356 342.65 354.22 342.65 352.03C342.65 348.63 342.65 331.63 342.65 301.04L342.65 301.04C344.03 298.4 345.57 297.07 347.27 297.07ZM329.64 287.19C332.15 287.19 334.18 288.96 334.18 291.14C334.18 298.22 334.18 354.85 334.18 361.93C334.18 364.12 332.14 365.88 329.64 365.88C327.12 365.88 325.09 364.12 325.09 361.93C325.09 357.21 325.09 333.61 325.09 291.14L325.09 291.14C326.45 288.51 327.97 287.19 329.64 287.19ZM400.13 287.19C402.65 287.19 404.67 288.96 404.67 291.14C404.67 298.22 404.67 354.85 404.67 361.93C404.67 364.12 402.63 365.88 400.13 365.88C397.61 365.88 395.58 364.12 395.58 361.93C395.58 357.21 395.58 333.61 395.58 291.14L395.58 291.14C396.94 288.51 398.46 287.19 400.13 287.19Z" id="cyBHGfhgn"></path><path d="M241.58 549.17C241.58 576.77 219.18 599.17 191.58 599.17C163.99 599.17 141.58 576.77 141.58 549.17C141.58 521.58 163.99 499.17 191.58 499.17C219.18 499.17 241.58 521.58 241.58 549.17Z" id="a3OAOzGTbs"></path><clipPath id="clipalbv8NmwA"><use xlink:href="#a3OAOzGTbs" opacity="1"></use></clipPath><path d="M624.57 434.7C624.57 462.29 602.16 484.7 574.57 484.7C546.97 484.7 524.57 462.29 524.57 434.7C524.57 407.1 546.97 384.7 574.57 384.7C602.16 384.7 624.57 407.1 624.57 434.7Z" id="d99kId3lO"></path><clipPath id="clipe1JHkbh5Jy"><use xlink:href="#d99kId3lO" opacity="1"></use></clipPath><path d="M574.57 139.85C574.57 161.92 556.65 179.85 534.57 179.85C512.49 179.85 494.57 161.92 494.57 139.85C494.57 117.77 512.49 99.85 534.57 99.85C556.65 99.85 574.57 117.77 574.57 139.85Z" id="k96tTcqRf"></path><clipPath id="clipbuLR7FIRC"><use xlink:href="#k96tTcqRf" opacity="1"></use></clipPath><path d="M115.38 65.4C115.38 92.99 92.97 115.4 65.38 115.4C37.78 115.4 15.38 92.99 15.38 65.4C15.38 37.8 37.78 15.4 65.38 15.4C92.97 15.4 115.38 37.8 115.38 65.4Z" id="dtPVVtG8f"></path><clipPath id="clipajvPq8A6H"><use xlink:href="#dtPVVtG8f" opacity="1"></use></clipPath><path d="M486.67 554.47C486.67 587.59 459.79 614.47 426.67 614.47C393.56 614.47 366.67 587.59 366.67 554.47C366.67 521.36 393.56 494.47 426.67 494.47C459.79 494.47 486.67 521.36 486.67 554.47Z" id="a456IM1PJ"></path><clipPath id="clipar4hWpqQi"><use xlink:href="#a456IM1PJ" opacity="1"></use></clipPath><path d="" id="b3Fr1hlRhi"></path><path d="M271.16 258.36L100.76 99.85" id="cRT4EgI3C"></path><path d="M508.92 162.44L399.74 258.36" id="bj8peE86a"></path><path d="M283.42 395.51L208.93 515.51" id="c8lPpXhmP"></path><path d="M357.9 399.17L407.9 506.32" id="kmVKQCIeE"></path><path d="M418.51 355.3L538.51 409.38" id="apceVR3vH"></path></defs><g><g><g><use xlink:href="#cXVrLQ8nY" opacity="1" fill="#000000" fill-opacity="1"></use></g><g><use xlink:href="#cyBHGfhgn" opacity="1" fill="#ffffff" fill-opacity="1"></use><g><use xlink:href="#cyBHGfhgn" opacity="1" fill-opacity="0" stroke="#000000" stroke-width="1" stroke-opacity="0"></use></g></g><g><g clip-path="url(#clipalbv8NmwA)"><use xlink:href="#a3OAOzGTbs" opacity="1" fill-opacity="0" stroke="#000000" stroke-width="40" stroke-opacity="1"></use></g></g><g><g clip-path="url(#clipe1JHkbh5Jy)"><use xlink:href="#d99kId3lO" opacity="1" fill-opacity="0" stroke="#000000" stroke-width="40" stroke-opacity="1"></use></g></g><g><g clip-path="url(#clipbuLR7FIRC)"><use xlink:href="#k96tTcqRf" opacity="1" fill-opacity="0" stroke="#000000" stroke-width="40" stroke-opacity="1"></use></g></g><g><g clip-path="url(#clipajvPq8A6H)"><use xlink:href="#dtPVVtG8f" opacity="1" fill-opacity="0" stroke="#000000" stroke-width="40" stroke-opacity="1"></use></g></g><g><g clip-path="url(#clipar4hWpqQi)"><use xlink:href="#a456IM1PJ" opacity="1" fill-opacity="0" stroke="#000000" stroke-width="40" stroke-opacity="1"></use></g></g><g><g><use xlink:href="#b3Fr1hlRhi" opacity="1" fill-opacity="0" stroke="#000000" stroke-width="20" stroke-opacity="1"></use></g></g><g><g><use xlink:href="#cRT4EgI3C" opacity="1" fill-opacity="0" stroke="#000000" stroke-width="20" stroke-opacity="1"></use></g></g><g><g><use xlink:href="#bj8peE86a" opacity="1" fill-opacity="0" stroke="#000000" stroke-width="20" stroke-opacity="1"></use></g></g><g><g><use xlink:href="#c8lPpXhmP" opacity="1" fill-opacity="0" stroke="#000000" stroke-width="20" stroke-opacity="1"></use></g></g><g><g><use xlink:href="#kmVKQCIeE" opacity="1" fill-opacity="0" stroke="#000000" stroke-width="20" stroke-opacity="1"></use></g></g><g><g><use xlink:href="#apceVR3vH" opacity="1" fill-opacity="0" stroke="#000000" stroke-width="20" stroke-opacity="1"></use></g></g></g></g></svg>